<svg xmlns="http://www.w3.org/2000/svg" viewBox="0 0 96 78">
  <g fill="none" stroke="#171A17" stroke-width="1.5" stroke-linecap="round" stroke-linejoin="round">
    <path d="M96 75 52 37M96 65 58 35M96 54 64 32M94 42 69 29M89 31 73 25M82 20l-7 2"/>
    <path d="M78 78 51 46M65 78 45 52M52 78 39 58M39 78l-7-15M27 78l-3-11"/>
    <path d="m52 15 3 8 8 3-8 3-3 8-3-8-8-3 8-3 3-8Z"/>
    <path d="m24 29 2 5 6 2-6 2-2 6-2-6-5-2 5-2 2-5ZM75 7l2 4 4 2-4 2-2 4-2-4-4-2 4-2 2-4Z"/>
    <path d="M5 18h25v32H5zM9 22h17v11H9zM9 38h6M9 43h13M9 47h10"/>
    <path d="m15 57 4 4 4-4-4-4-4 4Zm12 8 3 3 3-3-3-3-3 3Z"/>
    <circle cx="38" cy="14" r="1.5"/><circle cx="35" cy="20" r="1.5"/><circle cx="42" cy="21" r="1.5"/>
    <path d="M3 72h36M7 67h25"/>
  </g>
</svg>
