<svg xmlns="http://www.w3.org/2000/svg" viewBox="0 0 96 78">
  <g fill="none" stroke="#171A17" stroke-width="1.5" stroke-linecap="round" stroke-linejoin="round">
    <path d="M1 72h94M4 66h38M7 59h31"/>
    <path d="M4 72V52h9v20M13 72V43h10v29M23 72V55h9v17M32 72V36h11v36M43 72V49h9v23"/>
    <path d="M7 56h3m-3 5h3m6-13h4m-4 6h4m-4 6h4m6 0h3m6-19h4m-4 6h4m-4 6h4m-4 6h4m7-5h3m-3 6h3"/>

    <path d="M3 46l9-7 9 7-9 7-9-7Z"/>
    <path d="M12 53v8M3 46v8l9 7 9-7v-8"/>
    <path d="m7 43 9 7m0-7-9 7"/>

    <path d="M47 26h7l4 4M44 20h8v-6h8M25 31h8l5 5h10"/>
    <circle cx="44" cy="20" r="1.5"/>
    <circle cx="25" cy="31" r="1.5"/>
    <circle cx="60" cy="14" r="1.5"/>
    <path d="M7 27h5v5H7zM17 20h4v4h-4zM29 14h5v5h-5zM39 25h4v4h-4z"/>

    <rect x="56" y="18" width="34" height="49" rx="4"/>
    <path d="M61 23h24v21H61z"/>
    <path d="M64 26h18v14H64zM68 29h10M68 33h7M68 37h4"/>
    <path d="M64 53h10M69 48v10"/>
    <circle cx="81" cy="50" r="2"/>
    <circle cx="85" cy="55" r="2"/>
    <path d="M63 63h20M67 67v5M73 67v5M79 67v5"/>

    <path d="M49 70 60 59M43 67l12-12M38 63l14-14"/>
    <path d="m40 58 4 1-1-4m5 7 4 1-1-4m-1 8 4 1-1-4"/>
    <path d="M87 9h4v4h-4zM76 7h3v3h-3zM92 28h3v3h-3z"/>
  </g>
</svg>
