<svg xmlns="http://www.w3.org/2000/svg" viewBox="0 0 96 128"><g fill="none" stroke="#171A17" stroke-width="1.5" stroke-linecap="round" stroke-linejoin="round"><path d="M-8 103c21-16 42-19 112-3"/><path d="M-2 112c24-16 51-17 106-3"/><rect x="8" y="88" width="20" height="14"/><rect x="34" y="82" width="20" height="14"/><rect x="60" y="80" width="20" height="14"/><rect x="4" y="84" width="4" height="4"/><rect x="13" y="84" width="4" height="4"/><rect x="30" y="78" width="4" height="4"/><rect x="39" y="78" width="4" height="4"/><rect x="56" y="76" width="4" height="4"/><rect x="65" y="76" width="4" height="4"/><rect x="82" y="81" width="4" height="4"/><rect x="91" y="82" width="4" height="4"/></g></svg>
