<svg xmlns="http://www.w3.org/2000/svg" viewBox="0 0 96 78">
  <g fill="none" stroke="#171A17" stroke-width="1.5" stroke-linecap="round" stroke-linejoin="round">
    <path d="M45 17q17-17 34 0M50 24q12-11 24 0M56 31q6-6 12 0"/>
    <rect x="42" y="35" width="45" height="31" rx="3"/>
    <path d="M47 40h28v20H47zM78 42h5M78 47h5M78 55h5M78 60h5"/>
    <path d="m57 46 9 4-9 5v-9ZM52 70h25"/>
    <g transform="rotate(-13 20 49)">
      <rect x="8" y="22" width="25" height="50" rx="4"/>
      <circle cx="15" cy="31" r="2"/><circle cx="26" cy="31" r="2"/>
      <path d="M14 40h13M14 46h13M14 52h13M14 58h6"/>
      <circle cx="25" cy="59" r="3"/>
      <path d="M14 66h5m4 0h5"/>
    </g>
    <path d="M2 72h92M35 58h5m-5 6h5M37 52l4-3"/>
    <path d="M4 15h8v6H4zM18 10h5v5h-5zM31 16h7v5h-7z"/>
  </g>
</svg>
