<svg xmlns="http://www.w3.org/2000/svg" width="141" height="47" viewBox="0 0 141 47" fill="none"><path d="M0.856445 23.4524C0.856445 10.6047 11.3663 0.189575 24.3308 0.189575C37.2953 0.189575 47.8051 10.6047 47.8051 23.4524C47.8051 36.3001 37.2953 46.7153 24.3308 46.7153C11.3663 46.7153 0.856445 36.3001 0.856445 23.4524Z" fill="url(#paint0_linear_3201_8)"></path><path fill-rule="evenodd" clip-rule="evenodd" d="M44.2686 35.3334C44.3415 35.4062 44.4174 35.4766 44.4963 35.5447C45.5986 36.5045 47.1438 36.9844 49.1318 36.9844C51.1199 36.9844 52.6651 36.5045 53.7674 35.5447C54.8106 34.6438 55.3322 33.3412 55.3322 31.6372V23.8515H51.7301V31.0496C51.7301 32.0681 51.4742 32.8124 50.9624 33.2825C50.4703 33.7134 49.8601 33.9288 49.1318 33.9288C48.4035 33.9288 47.7933 33.7134 47.3012 33.2825C46.7895 32.8124 46.5336 32.0681 46.5336 31.0496V30.5461C45.9602 32.2373 45.1968 33.8415 44.2686 35.3334ZM68.5637 14.5674V25.4968C67.6779 24.1257 66.3099 23.4402 64.4596 23.4402C62.5896 23.4402 61.0641 24.0866 59.8831 25.3793C58.7021 26.672 58.1116 28.2781 58.1116 30.1976C58.1116 32.0975 58.7119 33.7036 59.9126 35.0159C61.133 36.3282 62.7077 36.9844 64.6368 36.9844C66.2902 36.9844 67.5992 36.2988 68.5637 34.9278V36.573H72.1658V14.5674H68.5637ZM65.3749 26.6132C66.3985 26.6132 67.2449 26.956 67.9141 27.6415C68.5834 28.3271 68.918 29.1791 68.918 30.1976C68.918 31.2161 68.5834 32.0779 67.9141 32.783C67.2449 33.4686 66.3985 33.8113 65.3749 33.8113C64.3513 33.8113 63.5049 33.4686 62.8357 32.783C62.1664 32.0779 61.8318 31.2161 61.8318 30.1976C61.8318 29.1791 62.1664 28.3271 62.8357 27.6415C63.5049 26.956 64.3513 26.6132 65.3749 26.6132ZM79.2022 23.8515H75.6V36.573H79.2022V23.8515ZM75.2457 18.475C75.2457 19.0626 75.4524 19.5718 75.8658 20.0027C76.2988 20.4141 76.8106 20.6197 77.4011 20.6197C77.9916 20.6197 78.4936 20.4141 78.9069 20.0027C79.34 19.5718 79.5565 19.0626 79.5565 18.475C79.5565 17.8874 79.34 17.3879 78.9069 16.9766C78.4936 16.5457 77.9916 16.3302 77.4011 16.3302C76.8106 16.3302 76.2988 16.5457 75.8658 16.9766C75.4524 17.3879 75.2457 17.8874 75.2457 18.475ZM86.2376 26.907H88.7178V23.8515H86.2376V19.5033H82.6355V23.8515H81.2182V26.907H82.6355V36.573H86.2376V26.907ZM103.142 33.0181L99.8351 32.4892C99.1856 33.6057 98.1915 34.1639 96.853 34.1639C95.7311 34.1639 94.8748 33.7624 94.2843 32.9593C93.8709 32.3913 93.6643 31.6764 93.6643 30.8146H103.231V30.5208C103.231 28.4054 102.719 26.7405 101.695 25.5262C100.534 24.1355 98.8706 23.4402 96.7054 23.4402C94.7173 23.4402 93.1131 24.0376 91.8927 25.2324C90.5936 26.5251 89.944 28.19 89.944 30.227C89.944 32.2836 90.6133 33.9386 91.9518 35.1922C93.2115 36.387 94.8453 36.9844 96.853 36.9844C97.8963 36.9844 98.8214 36.8375 99.6285 36.5437C100.435 36.2303 101.075 35.8287 101.548 35.3391C102.02 34.8298 102.365 34.4087 102.581 34.0757C102.817 33.7232 103.004 33.3706 103.142 33.0181ZM99.8351 28.5229H93.7824C93.9201 27.7199 94.2745 27.0931 94.8453 26.6426C95.4358 26.1921 96.0854 25.9669 96.794 25.9669C97.5223 25.9669 98.1719 26.1921 98.7427 26.6426C99.3332 27.0735 99.6973 27.7003 99.8351 28.5229ZM106.02 23.8515V36.573H109.622V30.462C109.622 29.1693 109.858 28.2291 110.33 27.6415C110.882 26.956 111.679 26.6132 112.722 26.6132C113.391 26.6132 113.952 26.7699 114.405 27.0833L114.877 23.734C114.326 23.5381 113.814 23.4402 113.342 23.4402C112.515 23.4402 111.807 23.6263 111.216 23.9984C110.586 24.351 110.055 24.9386 109.622 25.7612V23.8515H106.02ZM116.659 23.8515V36.573H120.261V30.462C120.261 29.1693 120.498 28.2291 120.97 27.6415C121.521 26.956 122.318 26.6132 123.362 26.6132C124.031 26.6132 124.592 26.7699 125.045 27.0833L125.517 23.734C124.966 23.5381 124.454 23.4402 123.982 23.4402C123.155 23.4402 122.446 23.6263 121.856 23.9984C121.226 24.351 120.694 24.9386 120.261 25.7612V23.8515H116.659ZM137.101 23.8515V25.4968C136.216 24.1257 134.848 23.4402 132.997 23.4402C131.127 23.4402 129.602 24.0866 128.421 25.3793C127.24 26.672 126.649 28.2781 126.649 30.1976C126.649 32.0975 127.25 33.7036 128.45 35.0159C129.671 36.3282 131.246 36.9844 133.175 36.9844C134.828 36.9844 136.137 36.2988 137.101 34.9278V36.573H140.704V23.8515H137.101ZM133.913 26.6132C134.936 26.6132 135.783 26.956 136.452 27.6415C137.121 28.3271 137.456 29.1791 137.456 30.1976C137.456 31.2161 137.121 32.0779 136.452 32.783C135.783 33.4686 134.936 33.8113 133.913 33.8113C132.889 33.8113 132.043 33.4686 131.373 32.783C130.704 32.0779 130.37 31.2161 130.37 30.1976C130.37 29.1791 130.704 28.3271 131.373 27.6415C132.043 26.956 132.889 26.6132 133.913 26.6132Z" fill="white"></path><path fill-rule="evenodd" clip-rule="evenodd" d="M46.5367 30.5534C45.9618 32.2434 45.1963 33.8464 44.2655 35.3374C43.3717 34.449 42.9248 33.2178 42.9248 31.6437V23.8634H46.5367V30.5534ZM35.8692 23.8634V25.5076C34.9811 24.1374 33.6093 23.4524 31.754 23.4524C29.8789 23.4524 28.3493 24.0983 27.165 25.3901C25.9808 26.6819 25.3887 28.2869 25.3887 30.2051C25.3887 32.1037 25.9907 33.7087 27.1946 35.02C28.4184 36.3314 29.9974 36.9871 31.9316 36.9871C33.5896 36.9871 34.9021 36.3021 35.8692 34.932V36.5761H39.4812V23.8634H35.8692ZM32.6718 26.6232C33.6981 26.6232 34.5468 26.9657 35.2179 27.6508C35.889 28.3359 36.2245 29.1873 36.2245 30.2051C36.2245 31.2229 35.889 32.0841 35.2179 32.7887C34.5468 33.4738 33.6981 33.8163 32.6718 33.8163C31.6454 33.8163 30.7967 33.4738 30.1257 32.7887C29.4546 32.0841 29.119 31.2229 29.119 30.2051C29.119 29.1873 29.4546 28.3359 30.1257 27.6508C30.7967 26.9657 31.6454 26.6232 32.6718 26.6232Z" fill="white"></path><defs><linearGradient id="paint0_linear_3201_8" x1="-11.6632" y1="-11.0339" x2="68.1912" y2="-6.16455" gradientUnits="userSpaceOnUse"><stop stop-color="#FF5C00"></stop><stop offset="1" stop-color="#FD9222"></stop></linearGradient></defs></svg>