<svg width="1616" height="451" viewBox="0 0 1616 451" fill="none" xmlns="http://www.w3.org/2000/svg">
<path d="M236.576 7.64831L90.4206 41.391C72.1242 45.615 60.7163 63.8715 64.9404 82.1679L108.581 271.196C112.805 289.492 131.061 300.9 149.358 296.676L295.513 262.933C313.81 258.709 325.218 240.453 320.994 222.156L277.353 33.1286C273.129 14.8321 254.873 3.42425 236.576 7.64831Z" fill="#57B777"/>
<path d="M375.513 133.391L229.358 99.6483C211.061 95.4243 192.805 106.832 188.581 125.129L144.94 314.156C140.716 332.453 152.124 350.709 170.421 354.933L316.576 388.676C334.873 392.9 353.129 381.492 357.353 363.196L400.994 174.168C405.218 155.872 393.81 137.615 375.513 133.391Z" fill="#D6A545"/>
<path d="M172.307 184.607L33.6691 204.092C15.0742 206.705 2.11856 223.898 4.73191 242.493L29.2264 416.78C31.8397 435.375 49.0324 448.33 67.6274 445.717L206.265 426.233C224.86 423.619 237.815 406.427 235.202 387.832L210.708 213.545C208.094 194.95 190.902 181.994 172.307 184.607Z" fill="#292929"/>
<path d="M193.967 87.1621C203.967 150.162 243.967 190.162 307.967 203.162C243.967 216.162 203.967 256.162 193.967 319.162C183.967 256.162 143.967 216.162 79.967 203.162C143.967 190.162 183.967 150.162 193.967 87.1621Z" fill="white"/>
<path d="M639.282 189.303H609.386C608.533 184.415 606.961 180.085 604.67 176.312C602.379 172.487 599.528 169.246 596.117 166.589C592.706 163.933 588.816 161.94 584.447 160.612C580.13 159.23 575.467 158.54 570.458 158.54C561.559 158.54 553.672 160.771 546.797 165.234C539.923 169.644 534.541 176.126 530.651 184.681C526.761 193.182 524.816 203.569 524.816 215.843C524.816 228.329 526.761 238.849 530.651 247.404C534.594 255.905 539.976 262.334 546.797 266.691C553.672 270.994 561.532 273.146 570.378 273.146C575.281 273.146 579.864 272.509 584.127 271.234C588.443 269.905 592.307 267.966 595.717 265.416C599.181 262.865 602.085 259.73 604.43 256.011C606.828 252.292 608.48 248.041 609.386 243.259L639.282 243.419C638.163 251.176 635.738 258.455 632.008 265.256C628.331 272.057 623.508 278.061 617.539 283.268C611.571 288.422 604.59 292.46 596.597 295.382C588.603 298.251 579.73 299.686 569.978 299.686C555.59 299.686 542.747 296.365 531.45 289.724C520.153 283.082 511.253 273.492 504.752 260.952C498.251 248.413 495 233.377 495 215.843C495 198.256 498.277 183.22 504.832 170.734C511.387 158.194 520.313 148.604 531.61 141.962C542.907 135.321 555.697 132 569.978 132C579.091 132 587.564 133.275 595.398 135.826C603.231 138.376 610.212 142.122 616.34 147.063C622.469 151.951 627.505 157.955 631.448 165.075C635.445 172.142 638.056 180.218 639.282 189.303Z" fill="white"/>
<path d="M688.821 175.037L713.601 220.226L738.78 175.037H769.395L732.385 236.246L770.034 297.454H739.579L713.601 253.381L687.862 297.454H657.167L694.576 236.246L658.126 175.037H688.821Z" fill="white"/>
<path d="M840.716 299.845C828.726 299.845 818.335 297.215 809.542 291.955C800.749 286.695 793.928 279.336 789.079 269.879C784.283 260.421 781.885 249.37 781.885 236.724C781.885 224.079 784.283 213 789.079 203.49C793.928 193.979 800.749 186.594 809.542 181.333C818.335 176.073 828.726 173.443 840.716 173.443C852.706 173.443 863.098 176.073 871.891 181.333C880.683 186.594 887.478 193.979 892.274 203.49C897.123 213 899.548 224.079 899.548 236.724C899.548 249.37 897.123 260.421 892.274 269.879C887.478 279.336 880.683 286.695 871.891 291.955C863.098 297.215 852.706 299.845 840.716 299.845ZM840.876 276.733C847.378 276.733 852.813 274.953 857.183 271.393C861.553 267.78 864.803 262.945 866.935 256.888C869.12 250.831 870.212 244.083 870.212 236.644C870.212 229.153 869.12 222.378 866.935 216.321C864.803 210.211 861.553 205.349 857.183 201.736C852.813 198.123 847.378 196.317 840.876 196.317C834.215 196.317 828.673 198.123 824.25 201.736C819.88 205.349 816.603 210.211 814.418 216.321C812.286 222.378 811.22 229.153 811.22 236.644C811.22 244.083 812.286 250.831 814.418 256.888C816.603 262.945 819.88 267.78 824.25 271.393C828.673 274.953 834.215 276.733 840.876 276.733Z" fill="white"/>
<path d="M913.237 333V273.704H922.989C925.6 271.685 927.785 268.949 929.543 265.495C931.302 261.989 932.741 257.871 933.86 253.142C935.032 248.36 935.991 243.02 936.737 237.123C937.484 231.172 938.15 224.769 938.736 217.915L942.253 175.037H1030.98V273.704H1050V333H1022.03V297.454H941.693V333H913.237ZM952.724 273.704H1003.32V198.309H967.352L965.434 217.915C964.368 230.879 962.956 241.984 961.197 251.229C959.439 260.474 956.615 267.966 952.724 273.704Z" fill="white"/>
<path d="M1099.5 258.402L1148.66 175.037H1178.4V297.454H1150.42V214.01L1101.42 297.454H1071.61V175.037H1099.5V258.402Z" fill="white"/>
<path d="M1194.37 198.708V175.037H1301.8V198.708H1262.07V297.454H1234.09V198.708H1194.37Z" fill="white"/>
<path d="M1373.34 299.845C1361.08 299.845 1350.56 297.162 1341.77 291.796C1333.03 286.429 1326.28 279.017 1321.54 269.56C1316.85 260.049 1314.51 249.104 1314.51 236.724C1314.51 224.291 1316.91 213.319 1321.7 203.808C1326.5 194.245 1333.27 186.806 1342 181.493C1350.8 176.126 1361.19 173.443 1373.18 173.443C1383.14 173.443 1391.96 175.276 1399.64 178.943C1407.36 182.556 1413.52 187.683 1418.1 194.324C1422.69 200.913 1425.3 208.617 1425.94 217.437H1398.28C1397.16 211.539 1394.5 206.625 1390.29 202.693C1386.13 198.708 1380.56 196.715 1373.58 196.715C1367.66 196.715 1362.47 198.309 1357.99 201.497C1353.52 204.632 1350.02 209.148 1347.52 215.046C1345.07 220.944 1343.84 228.01 1343.84 236.246C1343.84 244.588 1345.07 251.761 1347.52 257.764C1349.97 263.715 1353.41 268.311 1357.83 271.552C1362.31 274.74 1367.56 276.334 1373.58 276.334C1377.84 276.334 1381.65 275.537 1385.01 273.943C1388.42 272.296 1391.27 269.932 1393.56 266.85C1395.85 263.768 1397.43 260.023 1398.28 255.613H1425.94C1425.24 264.273 1422.69 271.951 1418.26 278.646C1413.84 285.287 1407.82 290.494 1400.2 294.266C1392.58 297.986 1383.62 299.845 1373.34 299.845Z" fill="white"/>
<path d="M1522.28 297.454V198.469H1496.06C1489.4 198.469 1484.28 200.01 1480.71 203.091C1477.14 206.173 1475.38 209.998 1475.44 214.568C1475.38 219.137 1477.06 222.91 1480.47 225.885C1483.88 228.86 1488.76 230.348 1495.1 230.348H1531.39V251.389H1495.1C1485.29 251.389 1476.82 249.848 1469.68 246.766C1462.54 243.684 1457.05 239.328 1453.21 233.695C1449.38 228.063 1447.46 221.475 1447.46 213.93C1447.46 206.067 1449.4 199.239 1453.29 193.448C1457.24 187.603 1462.83 183.087 1470.08 179.899C1477.38 176.658 1486.04 175.037 1496.06 175.037H1549.37V297.454H1522.28ZM1442.98 297.454L1477.27 234.652H1505.81L1471.44 297.454H1442.98Z" fill="white"/>
<path d="M1613.92 134.232L1611.28 249.476H1585.55L1582.99 134.232H1613.92ZM1598.41 299.208C1593.57 299.208 1589.41 297.508 1585.94 294.107C1582.53 290.707 1580.83 286.562 1580.83 281.674C1580.83 276.892 1582.53 272.801 1585.94 269.4C1589.41 266 1593.57 264.3 1598.41 264.3C1603.16 264.3 1607.26 266 1610.72 269.4C1614.24 272.801 1616 276.892 1616 281.674C1616 284.915 1615.17 287.864 1613.52 290.521C1611.92 293.177 1609.79 295.303 1607.13 296.897C1604.52 298.437 1601.61 299.208 1598.41 299.208Z" fill="white"/>
</svg>
