<svg xmlns="http://www.w3.org/2000/svg" width="72" height="72" viewBox="0 0 72 72">
  <g fill="none" fill-rule="evenodd">
    <rect width="72" height="72"/>
    <g fill="#000" fill-rule="nonzero" transform="translate(14 8)">
      <path d="M32,51 C24.4,55.8 14.3,54.7 8,48.3 C1.2,41.5 0.5,30.6 6.3,22.9 L21.7,2.6 L37.1,22.9 C41.9,29.2 42.4,37.7 38.3,44.5 C38,45 38.2,45.6 38.6,45.9 C39.1,46.2 39.7,46 40,45.6 C44.5,38.1 44,28.7 38.7,21.7 L22.5,0.4 C22.1,-0.1 21.3,-0.1 20.9,0.4 L4.7,21.7 C-1.7,30.2 -0.9,42.2 6.6,49.7 C10.7,53.8 16.2,55.9 21.8,55.9 C25.7,55.9 29.7,54.8 33.2,52.6 C33.7,52.3 33.8,51.7 33.5,51.2 C33.1,50.8 32.5,50.7 32,51 Z"/>
      <path d="M43.4,54.3 L31.2,42.1 C31.2,42.1 31.2,42.1 31.2,42.1 C33,39.9 34.2,37.1 34.2,34.1 C34.2,27.2 28.6,21.7 21.8,21.7 C14.9,21.7 9.4,27.3 9.4,34.1 C9.4,40.9 15,46.5 21.8,46.5 C24.9,46.5 27.7,45.4 29.8,43.5 C29.8,43.5 29.8,43.5 29.8,43.5 L42,55.7 C42.2,55.9 42.5,56 42.7,56 C42.9,56 43.2,55.9 43.4,55.7 C43.8,55.3 43.8,54.7 43.4,54.3 Z M21.7,44.4 C16,44.4 11.3,39.7 11.3,34 C11.3,28.3 16,23.6 21.7,23.6 C27.4,23.6 32.1,28.3 32.1,34 C32.1,39.7 27.4,44.4 21.7,44.4 Z"/>
    </g>
  </g>
</svg>
