<svg xmlns="http://www.w3.org/2000/svg" width="72" height="72" viewBox="0 0 72 72">
  <g fill="none" fill-rule="evenodd" transform="translate(0 -.1)">
    <rect width="72" height="72"/>
    <path fill="#000" fill-rule="nonzero" d="M58.5,16.2 L58.3,16.1 C52.3,10.1 42.5,9.8 36.2,15.5 C33.3,12.9 29.5,11.5 25.6,11.5 C21.3,11.5 17.3,13.2 14.3,16.2 C14.3,16.2 14.2,16.3 14.2,16.3 L13.1,17.7 C10.4,21.1 9.1,25.4 9.2,29.8 C9.2,30.4 9.7,30.8 10.2,30.8 C10.8,30.8 11.2,30.3 11.2,29.8 C11,25.9 12.3,22.1 14.6,19 L15.7,17.6 C21.2,12.2 30,12.2 35.5,17.6 C35.9,18 36.5,18 36.9,17.6 L37.2,17.3 C42.7,12 51.5,12.2 56.9,17.5 L57.1,17.7 C63.1,23.8 63.2,33.6 57.4,40 C51,46.8 44,53.1 36.4,58.6 L35.8,58.2 C28.8,53 22.2,47.2 16.2,40.8 C15.8,40.4 15.2,40.4 14.8,40.8 C14.4,41.2 14.4,41.8 14.7,42.2 C20.7,48.7 27.4,54.6 34.6,59.8 L35.7,60.6 C35.9,60.7 36.1,60.8 36.3,60.8 C36.5,60.8 36.7,60.7 36.9,60.6 C44.8,54.9 52.2,48.4 58.8,41.2 C65.3,34.1 65.2,23.1 58.5,16.2 Z"/>
    <path fill="#000" fill-rule="nonzero" d="M18.2,36.1 L24.3,28.3 C24.4,28.2 24.6,28 24.8,28.1 C25,28.1 25.2,28.3 25.3,28.7 L30.2,42.7 C30.5,43.7 31.3,44.3 32.2,44.5 C32.4,44.5 32.5,44.6 32.7,44.6 C33.4,44.6 34,44.3 34.5,43.8 L40.6,37.4 C40.7,37.3 40.8,37.2 41,37.2 L43.7,37.2 C44.1,38.7 45.5,39.8 47.1,39.8 C49.1,39.8 50.7,38.2 50.7,36.2 C50.7,34.2 49.1,32.6 47.1,32.6 C45.5,32.6 44.1,33.7 43.7,35.2 L41,35.2 C40.3,35.2 39.7,35.5 39.2,36 L33.1,42.4 C33,42.6 32.8,42.6 32.6,42.6 C32.4,42.6 32.2,42.3 32.1,42 L27.2,28 C26.8,27 26.1,26.3 25.1,26.1 C24.2,25.9 23.3,26.3 22.7,27.1 L16.6,34.9 C16.5,35.1 16.3,35.2 16.2,35.2 L9.4,35.2 C8.8,35.2 8.4,35.6 8.4,36.2 C8.4,36.8 8.8,37.2 9.4,37.2 L16.2,37.2 C17,37.1 17.7,36.7 18.2,36.1 Z M47.1,34.5 C48,34.5 48.7,35.2 48.7,36.1 C48.7,37 48,37.7 47.1,37.7 C46.2,37.7 45.5,37 45.5,36.1 C45.5,35.2 46.3,34.5 47.1,34.5 Z"/>
  </g>
</svg>
