<svg xmlns="http://www.w3.org/2000/svg" width="72" height="72" viewBox="0 0 72 72">
  <g fill="none" fill-rule="evenodd" transform="translate(-.1)">
    <rect width="72" height="72"/>
    <path fill="#000" d="M53.4187,61.078452 C53.0937,61.654452 52.4447,62.013452 51.7237,62.013452 C50.8147,62.013452 50.0257,61.393452 49.8057,60.507452 C47.9257,52.927452 45.7017,48.500452 43.0077,46.974452 C40.8517,45.745452 38.3987,45.095452 35.9157,45.094452 C33.4337,45.095452 30.9807,45.745452 28.8267,46.973452 C26.1327,48.499452 23.9077,52.927452 22.0267,60.507452 C21.8067,61.393452 21.0177,62.013452 20.1087,62.013452 C19.3877,62.013452 18.7387,61.654452 18.4137,61.078452 C13.6787,52.666452 17.8977,36.432452 17.9407,36.268452 C17.9867,36.093452 17.9567,35.812452 17.9067,35.638452 C17.8587,35.475452 17.7717,35.327452 17.6507,35.208452 C17.1837,34.743452 16.7207,34.275452 16.2607,33.804452 C11.0847,28.488452 10.7067,20.522452 15.3607,14.860452 L16.3837,13.616452 C21.5697,8.76645199 29.9677,8.78045199 35.1337,13.659452 C35.3527,13.864452 35.6357,13.952452 35.9167,13.927452 C36.1917,13.951452 36.4807,13.864452 36.6987,13.659452 C41.8647,8.78145199 50.2627,8.76745199 55.4487,13.616452 L56.4717,14.860452 C61.1267,20.522452 60.7477,28.488452 55.5717,33.803452 C55.1117,34.275452 54.6487,34.743452 54.1817,35.208452 C54.0627,35.326452 53.9467,35.568452 53.8997,35.728452 C53.8477,35.905452 53.8447,36.092452 53.8917,36.269452 C53.9357,36.432452 58.1587,52.657452 53.4187,61.078452 M57.0037,35.198452 C62.9037,29.141452 63.3297,20.053452 58.0167,13.591452 L56.9527,12.297452 C56.9257,12.264452 56.8977,12.233452 56.8667,12.204452 C51.1207,6.78145199 41.8887,6.60345199 35.9167,11.676452 C29.9437,6.60445199 20.7107,6.78145199 14.9657,12.204452 C14.9357,12.233452 14.9067,12.264452 14.8797,12.297452 L13.8157,13.591452 C8.5027,20.053452 8.9287,29.141452 14.8287,35.199452 C15.1767,35.556452 15.5267,35.911452 15.8787,36.265452 C15.1597,39.211452 11.9747,53.715452 16.6707,62.058452 C17.3497,63.264452 18.6667,64.013452 20.1087,64.013452 C21.9387,64.013452 23.5247,62.769452 23.9677,60.989452 C26.1077,52.367452 28.3277,49.555452 29.8147,48.712452 C33.5267,46.597452 38.3067,46.597452 42.0197,48.713452 C43.5057,49.555452 45.7267,52.368452 47.8647,60.989452 C48.3077,62.769452 49.8937,64.013452 51.7237,64.013452 C53.1657,64.013452 54.4827,63.264452 55.1617,62.058452 C59.8577,53.715452 56.6727,39.211452 55.9537,36.265452 C56.3057,35.911452 56.6557,35.556452 57.0037,35.198452"/>
  </g>
</svg>
