<svg xmlns="http://www.w3.org/2000/svg" width="72" height="72" viewBox="0 0 72 72">
  <g fill="none" fill-rule="evenodd">
    <rect width="72" height="72"/>
    <path fill="#000" fill-rule="nonzero" d="M60.3,34.9 C62.5,33.6 64,31.3 64,28.5 C64,24.4 60.7,21.1 56.6,21.1 L44.6,21.1 C40.4,21.1 37,17.7 37,13.5 C37,10.4 34.4,7.8 31.3,7.8 C28.2,7.8 25.6,10.4 25.6,13.5 C25.6,18.6 27.3,23.4 30.4,27.4 L15.4,27.4 C11.3,27.4 8,30.7 8,34.8 C8,37.5 9.5,39.9 11.7,41.2 C9.5,42.6 8,44.9 8,47.6 C8,51.7 11.3,55 15.4,55 L31.5,55 C33.5,55 35,56.6 35,58.5 C35,61.5 37.4,64 40.5,64 C43.6,64 46,61.6 46,58.5 C46,55.3 45,52.3 43.2,49.6 L42.5,48.6 L56.7,48.6 C60.8,48.6 64.1,45.3 64.1,41.2 C64,38.6 62.5,36.2 60.3,34.9 Z M56.6,46.6 L23,46.6 C22.4,46.6 22,47 22,47.6 C22,48.2 22.4,48.6 23,48.6 L40,48.6 L41.5,50.8 C43.1,53.1 43.9,55.7 43.9,58.5 C43.9,60.4 42.4,62 40.4,62 C38.4,62 37,60.5 37,58.5 C37,55.4 34.5,53 31.5,53 L15.4,53 C12.4,53 10,50.6 10,47.6 C10,44.6 12.4,42.2 15.4,42.2 L16.3,42.2 L49,42.2 C49.6,42.2 50,41.8 50,41.2 C50,40.6 49.6,40.2 49,40.2 L16.2,40.2 L15.3,40.2 C12.3,40.2 9.9,37.8 9.9,34.8 C9.9,31.8 12.3,29.4 15.3,29.4 L49,29.4 C49.6,29.4 50,29 50,28.4 C50,27.8 49.6,27.4 49,27.4 L33,27.4 C29.5,23.6 27.6,18.7 27.6,13.5 C27.6,11.5 29.3,9.8 31.3,9.8 C33.3,9.8 35,11.5 35,13.5 C35,18.8 39.3,23.1 44.6,23.1 L56.7,23.1 C59.7,23.1 62.1,25.5 62.1,28.5 C62.1,31.5 59.7,33.9 56.7,33.9 L40.5,33.9 L23,33.9 C22.4,33.9 22,34.3 22,34.9 C22,35.5 22.4,35.9 23,35.9 L40.5,35.9 L56.6,35.9 C59.6,35.9 62,38.3 62,41.3 C62,44.3 59.6,46.6 56.6,46.6 Z"/>
  </g>
</svg>
