<svg xmlns="http://www.w3.org/2000/svg" width="72" height="72" viewBox="0 0 72 72">
  <g fill="none" fill-rule="evenodd" transform="translate(0 -.9)">
    <rect width="72" height="72"/>
    <path fill="#000" d="M46.7453751,27.2896 L45.8863751,27.0136 L45.6103751,26.1546 C45.0043751,24.2716 44.7823751,22.3366 44.9063751,20.4396 L48.9433751,24.4766 C49.1393751,24.6726 49.3943751,24.7696 49.6503751,24.7696 C49.9063751,24.7696 50.1623751,24.6726 50.3573751,24.4766 C50.7483751,24.0866 50.7483751,23.4536 50.3573751,23.0626 L45.2663751,17.9716 C45.5283751,16.8456 45.9213751,15.7506 46.4343751,14.7056 L58.1953751,26.4666 C54.6893751,28.1896 50.6073751,28.5336 46.7453751,27.2896 L46.7453751,27.2896 Z M43.3823751,42.3496 C43.3633751,42.3266 43.3563751,42.2996 43.3353751,42.2776 L30.5643751,29.5076 C33.4243751,27.1286 37.2753751,26.3416 40.8693751,27.4996 L44.2973751,28.6026 L45.4013751,32.0316 C45.8483751,33.4196 45.9933751,34.8466 45.8843751,36.2426 L40.1293751,30.4876 C39.7393751,30.0976 39.1063751,30.0976 38.7153751,30.4876 C38.3253751,30.8786 38.3253751,31.5116 38.7153751,31.9016 L45.4203751,38.6056 C44.9993751,39.9586 44.3173751,41.2276 43.3823751,42.3496 L43.3823751,42.3496 Z M31.6603751,45.7726 L28.2313751,44.6686 L27.1273751,41.2396 C26.6633751,39.7986 26.5143751,38.3136 26.6493751,36.8676 L32.5663751,42.7856 C32.7623751,42.9806 33.0173751,43.0786 33.2733751,43.0786 C33.5293751,43.0786 33.7853751,42.9806 33.9803751,42.7856 C34.3713751,42.3946 34.3713751,41.7626 33.9803751,41.3716 L27.1483751,34.5386 C27.5723751,33.2316 28.2423751,32.0066 29.1493751,30.9206 L41.9213751,43.6916 C41.9423751,43.7136 41.9713751,43.7216 41.9933751,43.7396 C39.1313751,46.1386 35.2653751,46.9336 31.6603751,45.7726 L31.6603751,45.7726 Z M26.9183751,47.1176 C27.8163751,49.9086 27.8863751,52.8166 27.2053751,55.5386 L21.1413751,49.4756 C20.7513751,49.0846 20.1183751,49.0846 19.7273751,49.4756 C19.3373751,49.8656 19.3373751,50.4986 19.7273751,50.8896 L26.5013751,57.6626 C26.0823751,58.6756 25.5513751,59.6446 24.9143751,60.5596 C24.8823751,60.5126 24.8623751,60.4596 24.8213751,60.4176 L12.3693751,47.9656 C16.2493751,45.2746 21.1733751,44.4986 25.7833751,45.9816 L26.6413751,46.2586 L26.9183751,47.1176 Z M63.7073751,23.5346 C63.3163751,23.1436 62.6833751,23.1436 62.2933751,23.5346 C61.5723751,24.2566 60.7903751,24.8906 59.9663751,25.4426 C59.9403751,25.4106 59.9283751,25.3706 59.8973751,25.3406 L47.4723751,12.9146 C48.0213751,12.0976 48.6503751,11.3216 49.3653751,10.6066 C49.7563751,10.2166 49.7563751,9.5836 49.3653751,9.1926 C48.9743751,8.8026 48.3423751,8.8026 47.9513751,9.1926 C43.4543751,13.6896 41.8043751,20.1866 43.5633751,26.2656 L41.4823751,25.5956 C36.8453751,24.1036 31.8283751,25.3146 28.3863751,28.7586 C24.9433751,32.2006 23.7313751,37.2186 25.2233751,41.8526 L25.8933751,43.9356 C19.8153751,42.1766 13.3163751,43.8256 8.82037512,48.3226 L8.29237512,48.8516 C7.90237512,49.2416 7.90237512,49.8756 8.29337512,50.2656 C8.48837512,50.4606 8.74437512,50.5586 9.00037512,50.5586 C9.25637512,50.5586 9.51237512,50.4606 9.70737512,50.2656 L10.2353751,49.7366 C10.4153751,49.5566 10.6043751,49.3876 10.7923751,49.2176 L23.4073751,61.8316 C23.5043751,61.9286 23.6163751,62.0016 23.7363751,62.0506 C23.5493751,62.2586 23.3613751,62.4656 23.1623751,62.6646 L22.6343751,63.1926 C22.2443751,63.5836 22.2443751,64.2176 22.6353751,64.6066 C22.8303751,64.8026 23.0863751,64.8996 23.3423751,64.8996 C23.5983751,64.8996 23.8543751,64.8026 24.0493751,64.6066 L24.5773751,64.0786 C29.0733751,59.5826 30.7243751,53.0846 28.9653751,47.0066 L31.0473751,47.6776 C35.6833751,49.1686 40.7003751,47.9566 44.1423751,44.5146 C47.5843751,41.0706 48.7963751,36.0536 47.3053751,31.4186 L46.6343751,29.3366 C52.7143751,31.0976 59.2113751,29.4456 63.7073751,24.9486 C64.0983751,24.5586 64.0983751,23.9256 63.7073751,23.5346 L63.7073751,23.5346 Z"/>
  </g>
</svg>
