<svg xmlns="http://www.w3.org/2000/svg" width="72" height="72" viewBox="0 0 72 72">
  <g fill="none" fill-rule="evenodd">
    <rect width="72" height="72"/>
    <g fill="#000" fill-rule="nonzero" transform="translate(9 9)">
      <path d="M22.3,0.5 L20.4,0.5 C9.6,0.5 0.9,9.2 0.9,20 L0.9,22.9 C0.9,23.5 1.3,23.9 1.9,23.9 C2.5,23.9 2.9,23.5 2.9,22.9 L2.9,20 C2.9,10.4 10.7,2.5 20.4,2.5 L22.3,2.5 C30.2,2.5 36.7,9 36.7,16.9 C36.7,20.7 35.3,24.2 32.6,26.9 C31.8,27.7 31.1,28.4 30.4,29.1 C25.8,33.7 23,36.5 23,44.4 L23,45.1 C23,48.6 20.2,51.4 16.7,51.4 C13.2,51.4 10.4,48.6 10.4,45.1 L10.4,37.8 C10.4,37.2 10,36.8 9.4,36.8 C8.8,36.8 8.4,37.2 8.4,37.8 L8.4,45.1 C8.4,49.7 12.1,53.4 16.7,53.4 C21.3,53.4 25,49.7 25,45.1 L25,44.4 C25,37.3 27.3,35 31.9,30.5 C32.6,29.8 33.3,29.1 34.1,28.3 C37.1,25.2 38.7,21.2 38.7,16.9 C38.7,7.8 31.3,0.5 22.3,0.5 Z"/>
      <path d="M9.3 30.2C8.7 30.2 8.3 30.6 8.3 31.2 8.3 31.8 8.7 32.2 9.3 32.2 13.4 32.2 16.6 28.9 16.6 24.9 16.6 21.2 13.9 18.1 10.3 17.6 10.7 12.6 14.9 8.7 20 8.7 25.3 8.7 29.7 13 29.7 18.4 29.7 19 30.1 19.4 30.7 19.4 31.3 19.4 31.7 19 31.7 18.4 31.7 12 26.5 6.7 20 6.7 13.5 6.7 8.3 11.9 8.3 18.4 8.3 18.4 8.3 18.4 8.3 18.5 8.3 18.5 8.3 18.5 8.3 18.6 8.3 19.2 8.7 19.6 9.3 19.6 12.2 19.6 14.6 22 14.6 24.9 14.6 27.8 12.3 30.2 9.3 30.2zM52.1 35.4L44.1 35.4C43.5 35.4 43.1 35.8 43.1 36.4 43.1 37 43.5 37.4 44.1 37.4L52.1 37.4C52.7 37.4 53.1 37 53.1 36.4 53.1 35.8 52.7 35.4 52.1 35.4zM44.8 43.7C44.4 43.3 43.8 43.3 43.4 43.7 43 44.1 43 44.7 43.4 45.1L46.9 48.6C47.1 48.8 47.4 48.9 47.6 48.9 47.8 48.9 48.1 48.8 48.3 48.6 48.7 48.2 48.7 47.6 48.3 47.2L44.8 43.7zM44.1 29.3C44.4 29.3 44.6 29.2 44.8 29L48.3 25.5C48.7 25.1 48.7 24.5 48.3 24.1 47.9 23.7 47.3 23.7 46.9 24.1L43.4 27.6C43 28 43 28.6 43.4 29 43.6 29.2 43.8 29.3 44.1 29.3z"/>
    </g>
  </g>
</svg>
