<svg xmlns="http://www.w3.org/2000/svg" width="72" height="72" viewBox="0 0 72 72">
  <g fill="none" fill-rule="evenodd">
    <rect width="72" height="72"/>
    <g fill="#000" fill-rule="nonzero" transform="translate(7 9)">
      <path d="M52.3 37.9C48.5 39.9 44.3 41 40 41 25.7 41 14 29.3 14 15 14 10.7 15.1 6.5 17.1 2.7 17.3 2.3 17.2 1.8 16.9 1.5 16.6 1.2 16.1 1.1 15.7 1.3 6.6 6.2.9 15.7.9 26 .9 41.4 13.5 54 28.9 54 39.2 54 48.7 48.3 53.6 39.2 53.8 38.8 53.7 38.3 53.4 38 53.1 37.7 52.7 37.7 52.3 37.9zM28.9 52C14.6 52 2.9 40.3 2.9 26 2.9 17.5 7 9.6 13.8 4.8 12.6 8 12 11.5 12 15 12 30.4 24.6 43 40 43 43.5 43 46.9 42.3 50.2 41.1 45.3 47.9 37.4 52 28.9 52zM39.6 2L42.2 2 38.9 5.3C38.6 5.6 38.5 6 38.7 6.4 38.9 6.8 39.2 7 39.6 7L44.6 7C45.2 7 45.6 6.6 45.6 6 45.6 5.4 45.2 5 44.6 5L42 5 45.3 1.7C45.6 1.4 45.7 1 45.5.6 45.3.2 45 0 44.6 0L39.6 0C39 0 38.6.4 38.6 1 38.6 1.6 39.1 2 39.6 2zM56.1 20.7L49.5 20.7 56.8 13.4C57.1 13.1 57.2 12.7 57 12.3 56.8 11.9 56.5 11.7 56.1 11.7L47.1 11.7C46.5 11.7 46.1 12.1 46.1 12.7 46.1 13.3 46.5 13.7 47.1 13.7L53.7 13.7 46.4 21C46.1 21.3 46 21.7 46.2 22.1 46.4 22.5 46.7 22.7 47.1 22.7L56.1 22.7C56.7 22.7 57.1 22.3 57.1 21.7 57.1 21.1 56.6 20.7 56.1 20.7z"/>
      <path d="M30.7,19.2 L34.3,19.2 L30,23.5 C29.7,23.8 29.6,24.2 29.8,24.6 C30,25 30.3,25.2 30.7,25.2 L36.7,25.2 C37.3,25.2 37.7,24.8 37.7,24.2 C37.7,23.6 37.3,23.2 36.7,23.2 L33.1,23.2 L37.4,18.9 C37.7,18.6 37.8,18.2 37.6,17.8 C37.4,17.4 37.1,17.2 36.7,17.2 L30.7,17.2 C30.1,17.2 29.7,17.6 29.7,18.2 C29.7,18.8 30.2,19.2 30.7,19.2 Z"/>
    </g>
  </g>
</svg>
