<svg xmlns="http://www.w3.org/2000/svg" width="72" height="72" viewBox="0 0 72 72">
  <g fill="none" fill-rule="evenodd">
    <rect width="72" height="72"/>
    <path fill="#000" fill-rule="nonzero" d="M28,0 C12.6,0 0,12.6 0,28 C0,43.4 12.6,56 28,56 C43.4,56 56,43.4 56,28 C56,12.6 43.4,0 28,0 Z M32.7,2.4 C32.7,2.5 32.7,2.5 32.7,2.4 L32.7,12.7 C32.7,13.3 33.1,13.7 33.7,13.7 C36.3,13.7 38.4,15.8 38.4,18.4 C38.4,21 36.3,23.1 33.7,23.1 C31.1,23.1 29,21 29,18.4 C29,17.8 28.6,17.4 28,17.4 C27.4,17.4 27,17.8 27,18.4 C27,21 24.9,23.1 22.3,23.1 C19.7,23.1 17.6,21 17.6,18.4 C17.6,15.8 19.7,13.7 22.3,13.7 C22.9,13.7 23.3,13.3 23.3,12.7 L23.3,2.5 C23.3,2.5 23.3,2.4 23.3,2.4 C24.8,2.1 26.4,2 28,2 C29.6,2 31.2,2.2 32.7,2.4 Z M23.3,53.6 L23.3,42.6 C23.3,42 22.9,41.6 22.3,41.6 C19.7,41.6 17.6,39.5 17.6,36.9 C17.6,34.3 19.7,32.2 22.3,32.2 C24.9,32.2 27,34.3 27,36.9 C27,37.5 27.4,37.9 28,37.9 C28.6,37.9 29,37.5 29,36.9 C29,34.3 31.1,32.2 33.7,32.2 C36.3,32.2 38.4,34.3 38.4,36.9 C38.4,39.5 36.3,41.6 33.7,41.6 C33.1,41.6 32.7,42 32.7,42.6 L32.7,53.6 C31.1,53.8 29.6,54 28,54 C26.4,54 24.9,53.8 23.3,53.6 Z M34.7,53.1 L34.7,43.4 C37.9,42.9 40.4,40.2 40.4,36.8 C40.4,33.1 37.4,30.1 33.7,30.1 C31.3,30.1 29.2,31.4 28,33.2 C26.8,31.3 24.7,30.1 22.3,30.1 C18.6,30.1 15.6,33.1 15.6,36.8 C15.6,40.1 18.1,42.9 21.3,43.4 L21.3,53.1 C10.2,50.2 2,40 2,28 C2,16 10.2,5.8 21.3,2.9 L21.3,11.9 C18.1,12.4 15.6,15.1 15.6,18.5 C15.6,22.2 18.6,25.2 22.3,25.2 C24.7,25.2 26.8,23.9 28,22.1 C29.2,24 31.3,25.2 33.7,25.2 C37.4,25.2 40.4,22.2 40.4,18.5 C40.4,15.2 37.9,12.4 34.7,11.9 L34.7,2.9 C45.8,5.8 54,16 54,28 C54,40 45.8,50.2 34.7,53.1 Z" transform="translate(8 8)"/>
  </g>
</svg>
