<svg xmlns="http://www.w3.org/2000/svg" width="72" height="72" viewBox="0 0 72 72">
  <g fill="none" fill-rule="evenodd">
    <rect width="72" height="72"/>
    <path fill="#000" d="M45.7905,44.8701 C45.6425,44.8701 45.5035,44.9101 45.3775,44.9741 C41.1625,44.7051 37.8125,41.1991 37.8125,36.9181 C37.8125,36.3651 37.3655,35.9181 36.8125,35.9181 C36.2605,35.9181 35.8125,36.3651 35.8125,36.9181 C35.8125,42.0801 39.7135,46.3421 44.7215,46.9261 C44.2305,50.8901 40.8905,53.9691 36.8475,53.9691 C32.4675,53.9691 28.9035,50.3581 28.9035,45.9211 C28.9035,45.8771 28.8845,45.8401 28.8785,45.7981 L28.8785,9.9241 C28.8785,9.8411 28.8685,9.7611 28.8665,9.6791 C28.9985,5.4241 32.5005,2.0001 36.7975,2.0001 C41.1775,2.0001 44.7405,5.5551 44.7405,9.9241 C44.7405,12.7141 42.4705,14.9841 39.6805,14.9841 C39.1285,14.9841 38.6805,15.4321 38.6805,15.9841 C38.6805,16.5371 39.1285,16.9841 39.6805,16.9841 C43.2165,16.9841 46.1445,14.3691 46.6535,10.9731 C50.6285,11.4041 53.7335,14.7691 53.7335,18.8491 C53.7335,23.2191 50.1705,26.7731 45.7905,26.7731 L41.2935,26.7731 C40.7415,26.7731 40.2935,27.2211 40.2935,27.7731 C40.2935,28.3261 40.7415,28.7731 41.2935,28.7731 L45.7905,28.7731 C50.1705,28.7731 53.7335,32.3841 53.7335,36.8221 C53.7335,41.2601 50.1705,44.8701 45.7905,44.8701 M18.9115,53.9691 C14.5425,53.9691 10.9875,50.3771 10.9695,45.9041 C10.9785,43.2381 13.1485,41.0711 15.8175,41.0711 C16.3695,41.0711 16.8175,40.6241 16.8175,40.0711 C16.8175,39.5181 16.3695,39.0711 15.8175,39.0711 C12.4175,39.0711 9.5975,41.5621 9.0655,44.8141 C5.1095,44.3581 2.0245,40.9501 2.0245,36.8221 C2.0245,32.3841 5.5875,28.7731 9.9675,28.7731 L14.4395,28.7731 C14.9915,28.7731 15.4395,28.3261 15.4395,27.7731 C15.4395,27.2211 14.9915,26.7731 14.4395,26.7731 L9.9425,26.7731 C5.5625,26.7731 1.9995,23.2191 1.9995,18.8491 C1.9995,14.7971 5.0655,11.4501 9.0425,10.9841 C9.6585,15.6491 14.2755,19.2871 19.8675,19.2871 C20.4195,19.2871 20.8675,18.8401 20.8675,18.2871 C20.8675,17.7341 20.4195,17.2871 19.8675,17.2871 C14.9985,17.2871 11.0355,14.0351 10.9735,10.0181 C10.9765,9.9861 10.9925,9.9571 10.9925,9.9241 C10.9925,5.5551 14.5565,2.0001 18.9365,2.0001 C23.2325,2.0001 26.7345,5.4241 26.8665,9.6791 C26.8645,9.7611 26.8535,9.8411 26.8535,9.9241 C26.8535,9.9681 26.8735,10.0051 26.8785,10.0471 L26.8785,45.7981 C26.8735,45.8401 26.8535,45.8771 26.8535,45.9211 C26.8535,50.3581 23.2905,53.9691 18.9115,53.9691 M50.0985,27.7791 C53.4265,26.1741 55.7335,22.7791 55.7335,18.8491 C55.7335,13.6941 51.7775,9.4451 46.6945,8.9691 C46.2115,3.9431 41.9575,0.0001 36.7975,0.0001 C32.8735,0.0001 29.4825,2.2861 27.8665,5.5901 C26.2495,2.2861 22.8595,0.0001 18.9365,0.0001 C13.7775,0.0001 9.5235,3.9411 9.0385,8.9651 C3.9785,9.4221 -0.0005,13.6811 -0.0005,18.8491 C-0.0005,22.7841 2.3125,26.1821 5.6475,27.7851 C2.3265,29.4141 0.0245,32.8481 0.0245,36.8221 C0.0245,42.0351 3.9745,46.3341 9.0075,46.8231 C9.4605,51.9421 13.7295,55.9691 18.9115,55.9691 C22.8655,55.9691 26.2785,53.6171 27.8785,50.2311 C29.4795,53.6171 32.8925,55.9691 36.8475,55.9691 C42.0145,55.9691 46.2735,51.9651 46.7475,46.8241 C51.7825,46.3361 55.7335,42.0371 55.7335,36.8221 C55.7335,32.8431 53.4265,29.4061 50.0985,27.7791" transform="translate(8 8)"/>
  </g>
</svg>
