<svg xmlns="http://www.w3.org/2000/svg" width="72" height="72" viewBox="0 0 72 72">
  <g fill="none" fill-rule="evenodd">
    <rect width="72" height="72"/>
    <path fill="#000" fill-rule="nonzero" d="M43.3,29.2 C48.4,24.1 48.4,15.9 43.3,10.9 C39.1,6.7 32.9,6 27.9,8.7 C23,6 16.7,6.8 12.5,10.9 C12.5,10.9 12.5,11 12.4,11.1 L3.3,2 L9.2,2 C9.8,2 10.2,1.6 10.2,1 C10.2,0.4 9.8,0 9.2,0 L0.9,0 C0.9,0 0.9,0 0.9,0 C0.8,0 0.7,0 0.6,0.1 C0.6,0.1 0.6,0.1 0.6,0.1 C0.6,0.1 0.6,0.1 0.6,0.1 C0.5,0.1 0.4,0.2 0.3,0.3 C0.3,0.3 0.3,0.4 0.2,0.4 C0.1,0.5 0.1,0.5 0.1,0.6 C0.1,0.6 0.1,0.7 0.1,0.7 C0.1,0.8 0,0.9 0,1 L0,9.4 C0,10 0.4,10.4 1,10.4 C1.6,10.4 2,10 2,9.4 L2,3.4 L11.2,12.6 C7.7,17.7 8.1,24.7 12.7,29.2 C15.2,31.7 18.6,33 21.9,33 C24,33 26.2,32.5 28.1,31.4 C29.6,32.2 31.2,32.7 32.9,32.9 L32.9,37 L26.4,37 C25.8,37 25.4,37.4 25.4,38 C25.4,38.6 25.8,39 26.4,39 L32.9,39 L32.9,47 C32.9,47.6 33.3,48 33.9,48 C34.5,48 34.9,47.6 34.9,47 L34.9,39 L41.4,39 C42,39 42.4,38.6 42.4,38 C42.4,37.4 42,37 41.4,37 L34.9,37 L34.9,33 C37.8,32.8 40.9,31.6 43.3,29.2 Z M14,27.8 C11.9,25.7 10.8,23 10.8,20 C10.8,17.1 11.9,14.3 14,12.2 C16.1,10.1 18.8,9 21.8,9 C23.3,9 24.7,9.3 26.1,9.9 C25.7,10.2 25.4,10.5 25,10.8 C19.9,15.9 19.9,24.1 25,29.1 C25.3,29.4 25.7,29.7 26,30 C22,31.8 17.2,31 14,27.8 Z M29.5,12.3 C31.6,14.4 32.7,17.1 32.7,20.1 C32.7,23 31.6,25.8 29.5,27.9 C29,28.4 28.5,28.8 27.9,29.2 C27.3,28.8 26.8,28.4 26.3,27.9 C24.2,25.8 23.1,23.1 23.1,20.1 C23.1,17.2 24.2,14.4 26.3,12.3 C26.8,11.8 27.3,11.4 27.9,11 C28.5,11.4 29,11.8 29.5,12.3 Z M30.9,29.2 C36,24.1 36,15.9 30.9,10.9 C30.6,10.6 30.2,10.3 29.9,10 C31.3,9.4 32.7,9.1 34.2,9.1 C37,9.1 39.8,10.2 42,12.3 C46.3,16.6 46.3,23.5 42,27.8 C38.8,31 34,31.8 30,30.1 C30.2,29.9 30.6,29.5 30.9,29.2 Z" transform="translate(12.5 12)"/>
  </g>
</svg>
