<svg xmlns="http://www.w3.org/2000/svg" width="72" height="72" viewBox="0 0 72 72">
  <g fill="none" fill-rule="evenodd" transform="translate(.9)">
    <rect width="72" height="72"/>
    <path fill="#000" fill-rule="nonzero" d="M58.2434588,44.4 L56.8434588,33.2 C55.9434588,26.1 53.9434588,19.3 50.9434588,12.8 C49.1434588,9.1 45.3434588,6.7 41.2434588,6.7 C38.3434588,6.7 36.0434588,9 36.0434588,11.9 L36.0434588,22.6 L35.0434588,21.2 C33.5434588,19.1 32.7434588,16.5 32.7434588,13.9 L32.7434588,3.5 C32.7434588,1.6 31.2434588,8.52651283e-14 29.2434588,8.52651283e-14 L29.0434588,8.52651283e-14 C27.1434588,8.52651283e-14 25.5434588,1.5 25.5434588,3.5 L25.5434588,13.9 C25.5434588,16.5 24.7434588,19.1 23.2434588,21.2 L22.2434588,22.6 L22.2434588,11.9 C22.2434588,9 19.9434588,6.7 17.0434588,6.7 C12.9434588,6.7 9.14345885,9.1 7.34345885,12.9 C4.34345885,19.4 2.34345885,26.2 1.44345885,33.3 L0.0434588481,44.4 C-0.156541152,45.8 0.343458848,47.2 1.34345885,48.1 C2.14345885,48.9 3.24345885,49.3 4.34345885,49.3 C4.64345885,49.3 4.84345885,49.3 5.14345885,49.2 L15.7434588,47.3 C19.4434588,46.6 22.1434588,43.4 22.1434588,39.6 L22.1434588,34.3 L29.0434588,26.5 L35.9434588,34.3 L35.9434588,39.6 C35.9434588,43.4 38.6434588,46.6 42.3434588,47.3 L52.9434588,49.2 C53.2434588,49.2 53.4434588,49.3 53.7434588,49.3 C54.8434588,49.3 55.9434588,48.9 56.7434588,48.1 C57.9434588,47.2 58.3434588,45.8 58.2434588,44.4 Z M20.2434588,39.8 C20.2434588,42.6 18.2434588,45 15.4434588,45.5 L4.84345885,47.4 C4.04345885,47.5 3.34345885,47.3 2.74345885,46.8 C2.14345885,46.3 1.94345885,45.5 2.04345885,44.8 L3.44345885,33.6 C4.34345885,26.7 6.24345885,20.1 9.14345885,13.8 C10.5434588,10.8 13.6434588,8.8 17.0434588,8.8 C18.8434588,8.8 20.2434588,10.2 20.2434588,12 L20.2434588,39.8 L20.2434588,39.8 Z M29.8434588,24.4 C29.8434588,24.4 29.8434588,24.4 29.8434588,24.4 C29.8434588,24.4 29.8434588,24.4 29.8434588,24.4 C29.7434588,24.3 29.6434588,24.3 29.6434588,24.2 C29.5434588,24.2 29.5434588,24.1 29.4434588,24.1 C29.3434588,24.1 29.3434588,24.1 29.2434588,24.1 C29.1434588,24.1 29.1434588,24.1 29.0434588,24.1 C28.9434588,24.1 28.9434588,24.1 28.8434588,24.1 C28.7434588,24.1 28.7434588,24.1 28.6434588,24.1 C28.5434588,24.1 28.5434588,24.2 28.4434588,24.2 C28.4434588,24.2 28.3434588,24.2 28.3434588,24.3 C28.3434588,24.3 28.3434588,24.3 28.3434588,24.3 C28.3434588,24.3 28.3434588,24.3 28.3434588,24.3 L22.1434588,31.3 L22.1434588,25.9 L24.7434588,22.3 C26.5434588,19.8 27.4434588,16.9 27.4434588,13.8 L27.4434588,3.5 C27.4434588,2.7 28.1434588,2 28.9434588,2 L29.1434588,2 C29.9434588,2 30.6434588,2.7 30.6434588,3.5 L30.6434588,13.9 C30.6434588,17 31.5434588,19.9 33.3434588,22.4 L35.9434588,26 L35.9434588,31.4 L29.8434588,24.4 Z M55.4434588,46.7 C54.8434588,47.2 54.1434588,47.5 53.3434588,47.3 L42.7434588,45.4 C39.9434588,44.9 37.9434588,42.5 37.9434588,39.7 L37.9434588,11.9 C37.9434588,10.1 39.3434588,8.7 41.1434588,8.7 C44.5434588,8.7 47.5434588,10.7 49.0434588,13.7 C51.9434588,20 53.8434588,26.6 54.7434588,33.5 L56.2434588,44.7 C56.3434588,45.4 56.0434588,46.2 55.4434588,46.7 Z" transform="translate(6.957 11.3)"/>
  </g>
</svg>
