<svg xmlns="http://www.w3.org/2000/svg" width="72" height="72" viewBox="0 0 72 72">
  <g fill="none" fill-rule="evenodd" transform="translate(-.1)">
    <rect width="72" height="72"/>
    <path fill="#000" d="M14.4838 56.3906C13.4978 56.3906 12.6988 57.1896 12.6988 58.1746 12.6988 59.1606 13.4978 59.9586 14.4838 59.9586 15.4688 59.9586 16.2688 59.1606 16.2688 58.1746 16.2688 57.1896 15.4688 56.3906 14.4838 56.3906M18.1 49.6084C17.114 49.6084 16.315 50.4074 16.315 51.3924 16.315 52.3794 17.114 53.1774 18.1 53.1774 19.085 53.1774 19.885 52.3794 19.885 51.3924 19.885 50.4074 19.085 49.6084 18.1 49.6084M23.7162 55.502C22.7302 55.502 21.9312 56.301 21.9312 57.286 21.9312 58.272 22.7302 59.07 23.7162 59.07 24.7012 59.07 25.5012 58.272 25.5012 57.286 25.5012 56.301 24.7012 55.502 23.7162 55.502"/>
    <path fill="#000" d="M2.9727,31.1025 L7.9847,21.2655 L12.9967,31.1025 C14.1067,33.2805 13.6907,35.9055 11.9627,37.6335 C9.7697,39.8275 6.2017,39.8295 4.0067,37.6335 C2.2787,35.9055 1.8627,33.2805 2.9727,31.1025 M7.9847,41.2775 C9.9377,41.2775 11.8897,40.5345 13.3767,39.0475 C15.7197,36.7055 16.2837,33.1465 14.7787,30.1945 L8.9847,18.8235 L8.9847,0.9995 C8.9847,0.4475 8.5367,-0.0005 7.9847,-0.0005 C7.4327,-0.0005 6.9847,0.4475 6.9847,0.9995 L6.9847,18.8235 L1.1907,30.1945 C-0.3133,33.1475 0.2497,36.7055 2.5927,39.0475 C4.0787,40.5345 6.0317,41.2775 7.9847,41.2775" transform="translate(28.1 8)"/>
    <path fill="#000" d="M10.1,62 L10.1,47.729 C14.734,45.709 19.975,45.771 24.558,47.916 C25.174,49.346 26.059,50.68 27.212,51.832 C29.658,54.278 32.871,55.502 36.085,55.502 C39.298,55.501 42.512,54.278 44.957,51.832 C46.131,50.658 47.03,49.297 47.648,47.837 C52.246,45.751 57.485,45.729 62.1,47.802 L62.1,62 L10.1,62 Z M17.1,37 L25.038,37 L24.904,37.263 C23.584,39.854 23.241,42.727 23.784,45.43 C19.358,43.821 14.512,43.859 10.1,45.557 L10.1,44 C10.1,40.141 13.24,37 17.1,37 L17.1,37 Z M62.1,44 L62.1,45.63 C57.693,43.884 52.84,43.797 48.397,45.365 C48.922,42.682 48.574,39.834 47.265,37.263 L47.131,37 L55.1,37 C58.96,37 62.1,40.141 62.1,44 L62.1,44 Z M55.1,35 L45.499,35 C45.487,35 45.477,35.006 45.466,35.007 C45.4,35.009 45.337,35.03 45.271,35.046 C45.205,35.063 45.138,35.072 45.078,35.1 C45.067,35.105 45.055,35.104 45.045,35.109 C45.001,35.131 44.974,35.169 44.935,35.195 C44.876,35.237 44.816,35.275 44.767,35.329 C44.724,35.377 44.694,35.432 44.661,35.486 C44.627,35.541 44.592,35.592 44.569,35.652 C44.544,35.72 44.537,35.79 44.527,35.861 C44.52,35.908 44.499,35.951 44.499,36 C44.499,36.012 44.505,36.021 44.506,36.034 C44.508,36.101 44.53,36.164 44.545,36.23 C44.561,36.295 44.571,36.361 44.599,36.42 C44.603,36.432 44.602,36.443 44.608,36.454 L45.483,38.171 C47.564,42.256 46.785,47.178 43.543,50.418 C39.43,54.531 32.739,54.531 28.626,50.418 C25.385,47.178 24.605,42.256 26.686,38.171 L27.561,36.454 C27.567,36.443 27.566,36.432 27.571,36.42 C27.599,36.361 27.608,36.295 27.624,36.23 C27.64,36.164 27.661,36.101 27.663,36.034 C27.664,36.021 27.67,36.012 27.67,36 C27.67,35.951 27.649,35.908 27.642,35.861 C27.632,35.79 27.625,35.72 27.6,35.652 C27.578,35.592 27.542,35.541 27.508,35.486 C27.475,35.432 27.446,35.377 27.402,35.329 C27.353,35.275 27.293,35.237 27.233,35.195 C27.195,35.169 27.167,35.131 27.124,35.109 C27.114,35.104 27.102,35.105 27.092,35.1 C27.031,35.072 26.965,35.063 26.898,35.046 C26.833,35.03 26.769,35.009 26.704,35.007 C26.692,35.006 26.682,35 26.67,35 L17.1,35 C12.138,35 8.1,39.037 8.1,44 L8.1,63 C8.1,63.553 8.548,64 9.1,64 L63.1,64 C63.652,64 64.1,63.553 64.1,63 L64.1,44 C64.1,39.037 60.062,35 55.1,35 L55.1,35 Z"/>
    <path fill="#000" d="M57.5292 56.3906C56.5442 56.3906 55.7452 57.1896 55.7452 58.1746 55.7452 59.1606 56.5442 59.9586 57.5292 59.9586 58.5152 59.9586 59.3142 59.1606 59.3142 58.1746 59.3142 57.1896 58.5152 56.3906 57.5292 56.3906M53.913 49.6084C52.928 49.6084 52.128 50.4074 52.128 51.3924 52.128 52.3794 52.928 53.1774 53.913 53.1774 54.899 53.1774 55.698 52.3794 55.698 51.3924 55.698 50.4074 54.899 49.6084 53.913 49.6084M48.2968 55.502C47.3118 55.502 46.5118 56.301 46.5118 57.286 46.5118 58.272 47.3118 59.07 48.2968 59.07 49.2828 59.07 50.0818 58.272 50.0818 57.286 50.0818 56.301 49.2828 55.502 48.2968 55.502"/>
  </g>
</svg>
