<svg xmlns="http://www.w3.org/2000/svg" width="72" height="72" viewBox="0 0 72 72">
  <g fill="none" fill-rule="evenodd">
    <rect width="72" height="72"/>
    <path fill="#000" fill-rule="nonzero" d="M26.8.8C26.2.8 25.8 1.2 25.8 1.8L25.8 30.8 21.8 26.6C21.5 25.4 20.9 24.2 20 23.2 21.2 21.7 21.9 19.7 21.9 17.7 21.9 12.6 17.5 8.4 12.2 8.4L11.9 8.4C5.7 8.4.6 15.1.6 23.3.6 31.5 5.7 38.2 11.9 38.2L12.4 38.2C17.5 38.2 21.6 34.5 22.1 29.8L25.8 33.7 25.8 50.1C25.8 50.7 26.2 51.1 26.8 51.1 27.4 51.1 27.8 50.7 27.8 50.1L27.8 1.8C27.8 1.3 27.3.8 26.8.8zM12.4 36.2L11.9 36.2C6.8 36.2 2.6 30.4 2.6 23.3 2.6 16.2 6.8 10.4 11.9 10.4L12.2 10.4C16.5 10.4 19.9 13.7 19.9 17.7 19.9 21.7 16.4 25 12.2 25 11.6 25 11.2 25.4 11.2 26 11.2 26.6 11.6 27 12.2 27 14.7 27 16.9 26.1 18.6 24.7 19.6 25.9 20.1 27.4 20.1 29 20.1 32.9 16.7 36.2 12.4 36.2zM46.1 8.3L45.8 8.3C40.4 8.3 36.1 12.5 36.1 17.6 36.1 19.7 36.8 21.6 38 23.1 37.2 24.1 36.6 25.3 36.2 26.5L32.2 30.7 32.2 1.7C32.2 1.1 31.8.7 31.2.7 30.6.7 30.2 1.1 30.2 1.7L30.2 50C30.2 50.6 30.6 51 31.2 51 31.8 51 32.2 50.6 32.2 50L32.2 33.7 35.9 29.8C36.4 34.5 40.5 38.2 45.6 38.2L46.1 38.2C52.3 38.2 57.4 31.5 57.4 23.3 57.4 15.1 52.3 8.3 46.1 8.3zM46.1 36.2L45.6 36.2C41.3 36.2 37.9 32.9 37.9 28.9 37.9 27.3 38.4 25.8 39.4 24.6 41.1 26 43.4 26.9 45.8 26.9 46.4 26.9 46.8 26.5 46.8 25.9 46.8 25.3 46.4 24.9 45.8 24.9 41.5 24.9 38.1 21.6 38.1 17.6 38.1 13.6 41.6 10.3 45.8 10.3L46.1 10.3C51.2 10.3 55.4 16.1 55.4 23.2 55.4 30.4 51.2 36.2 46.1 36.2z" transform="translate(7 10)"/>
  </g>
</svg>
