<svg xmlns="http://www.w3.org/2000/svg" width="72" height="72" viewBox="0 0 72 72">
  <g fill="none" fill-rule="evenodd">
    <rect width="72" height="72"/>
    <g fill="#000" fill-rule="nonzero" transform="translate(9 12)">
      <path d="M27 8.2C27.6 8.2 28 7.8 28 7.2L28 1.5C28 .9 27.6.5 27 .5 26.4.5 26 .9 26 1.5L26 7.2C26 7.8 26.4 8.2 27 8.2zM40 9.4C40.3 9.4 40.5 9.3 40.7 9.1L44.7 5.1C45.1 4.7 45.1 4.1 44.7 3.7 44.3 3.3 43.7 3.3 43.3 3.7L39.3 7.7C38.9 8.1 38.9 8.7 39.3 9.1 39.5 9.3 39.7 9.4 40 9.4zM13.3 9.1C13.5 9.3 13.8 9.4 14 9.4 14.2 9.4 14.5 9.3 14.7 9.1 15.1 8.7 15.1 8.1 14.7 7.7L10.7 3.7C10.3 3.3 9.7 3.3 9.3 3.7 8.9 4.1 8.9 4.7 9.3 5.1L13.3 9.1z"/>
      <path d="M40.6,15.2 C33.1,7.7 21,7.7 13.5,15.2 L0.1,28.5 L13.4,41.8 C17.1,45.5 22,47.4 27,47.4 C32,47.4 36.8,45.5 40.6,41.8 L53.9,28.5 L40.6,15.2 Z M39.1,40.4 C32.4,47.1 21.5,47.1 14.8,40.4 L3,28.5 L14.9,16.6 C21.6,9.9 32.5,9.9 39.2,16.6 L51,28.5 L39.1,40.4 Z"/>
      <path d="M26.9,17.6 C20.8,17.6 15.9,22.5 15.9,28.6 C15.9,34.7 20.8,39.6 26.9,39.6 C33,39.6 37.9,34.7 37.9,28.6 C37.9,22.5 33,17.6 26.9,17.6 Z M26.9,37.6 C21.9,37.6 17.9,33.6 17.9,28.6 C17.9,23.6 21.9,19.6 26.9,19.6 C31.9,19.6 35.9,23.6 35.9,28.6 C35.9,33.6 31.9,37.6 26.9,37.6 Z"/>
      <circle cx="26.9" cy="28.6" r="3.5"/>
    </g>
  </g>
</svg>
