<svg width="398" height="440" viewBox="0 0 398 440" fill="none" xmlns="http://www.w3.org/2000/svg">
<path d="M232.179 0.878958L86.024 34.6216C67.7276 38.8456 56.3197 57.1021 60.5438 75.3985L104.184 264.427C108.408 282.723 126.664 294.131 144.961 289.907L291.116 256.164C309.413 251.94 320.821 233.684 316.597 215.387L272.956 26.3592C268.732 8.06275 250.476 -3.3451 232.179 0.878958Z" fill="#57B777"/>
<path d="M371.116 126.622L224.961 92.8789C206.664 88.6549 188.408 100.063 184.184 118.36L140.543 307.387C136.319 325.684 147.727 343.94 166.024 348.164L312.179 381.907C330.476 386.131 348.732 374.723 352.956 356.427L396.597 167.399C400.821 149.103 389.413 130.846 371.116 126.622Z" fill="#D6A545"/>
<path d="M167.91 177.838L29.2723 197.323C10.6774 199.936 -2.27823 217.129 0.335119 235.724L24.8296 410.011C27.4429 428.606 44.6356 441.561 63.2306 438.948L201.868 419.464C220.463 416.85 233.418 399.658 230.805 381.063L206.311 206.776C203.697 188.181 186.505 175.225 167.91 177.838Z" fill="#1B1F1B"/>
<path d="M189.57 80.3926C199.57 143.392 239.57 183.392 303.57 196.392C239.57 209.392 199.57 249.392 189.57 312.392C179.57 249.392 139.57 209.392 75.5703 196.392C139.57 183.392 179.57 143.392 189.57 80.3926Z" fill="white"/>
</svg>
