<svg xmlns="http://www.w3.org/2000/svg" width="1200" height="800" viewBox="0 0 1200 800">
  <!-- Icon geometry derived from Lucide Icons (ISC License): https://lucide.dev -->
  <defs>
    <linearGradient id="doodle-tone" gradientUnits="userSpaceOnUse" x1="80" y1="40" x2="1120" y2="760">
      <stop offset="0" stop-color="#315f43"/>
      <stop offset=".52" stop-color="#477558"/>
      <stop offset="1" stop-color="#80652d"/>
    </linearGradient>

    <symbol id="i-search" viewBox="0 0 24 24"><circle cx="11" cy="11" r="8"/><path d="m21 21-4.3-4.3"/></symbol>
    <symbol id="i-fingerprint" viewBox="0 0 24 24"><path d="M12 10a2 2 0 0 0-2 2c0 1.02-.1 2.51-.26 4M14 13.12c0 2.38 0 6.38-1 8.88M17.29 21.02c.12-.6.43-2.3.5-3.02M2 12a10 10 0 0 1 18-6M2 16h.01M21.8 16c.2-2 .131-5.354 0-6M5 19.5C5.5 18 6 15 6 12a6 6 0 0 1 .34-2M8.65 22c.21-.66.45-1.32.57-2M9 6.8a6 6 0 0 1 9 5.2v2"/></symbol>
    <symbol id="i-footprints" viewBox="0 0 24 24"><path d="M4 16v-2.38C4 11.5 2.97 10.5 3 8c.03-2.72 1.49-6 4.5-6C9.37 2 10 3.8 10 5.5c0 3.11-2 5.66-2 8.68V16a2 2 0 1 1-4 0ZM20 20v-2.38c0-2.12 1.03-3.12 1-5.62-.03-2.72-1.49-6-4.5-6C14.63 6 14 7.8 14 9.5c0 3.11 2 5.66 2 8.68V20a2 2 0 1 0 4 0ZM16 17h4M4 13h4"/></symbol>
    <symbol id="i-key" viewBox="0 0 24 24"><path d="M2.586 17.414A2 2 0 0 0 2 18.828V21a1 1 0 0 0 1 1h3a1 1 0 0 0 1-1v-1a1 1 0 0 1 1-1h1a1 1 0 0 0 1-1v-1a1 1 0 0 1 1-1h.172a2 2 0 0 0 1.414-.586l.814-.814a6.5 6.5 0 1 0-4-4z"/><circle cx="16.5" cy="7.5" r=".7" fill="#fff" stroke="none"/></symbol>
    <symbol id="i-flashlight" viewBox="0 0 24 24"><path d="M18 6c0 2-2 2-2 4v10a2 2 0 0 1-2 2h-4a2 2 0 0 1-2-2V10c0-2-2-2-2-4V2h12zM6 6h12M12 12h.01"/></symbol>
    <symbol id="i-door" viewBox="0 0 24 24"><path d="M13 4h3a2 2 0 0 1 2 2v14M2 20h3M13 20h9M10 12v.01M13 4.562v16.157a1 1 0 0 1-1.242.97L5 20V5.562a2 2 0 0 1 1.515-1.94l4-1A2 2 0 0 1 13 4.561Z"/></symbol>
    <symbol id="i-messages" viewBox="0 0 24 24"><path d="M14 9a2 2 0 0 1-2 2H6l-4 4V4a2 2 0 0 1 2-2h8a2 2 0 0 1 2 2zM18 9h2a2 2 0 0 1 2 2v11l-4-4h-6a2 2 0 0 1-2-2v-1"/></symbol>
    <symbol id="i-scan-eye" viewBox="0 0 24 24"><path d="M3 7V5a2 2 0 0 1 2-2h2M17 3h2a2 2 0 0 1 2 2v2M21 17v2a2 2 0 0 1-2 2h-2M7 21H5a2 2 0 0 1-2-2v-2"/><circle cx="12" cy="12" r="1"/><path d="M18.944 12.33a1 1 0 0 0 0-.66 7.5 7.5 0 0 0-13.888 0 1 1 0 0 0 0 .66 7.5 7.5 0 0 0 13.888 0"/></symbol>
    <symbol id="i-notebook" viewBox="0 0 24 24"><path d="M2 6h4M2 10h4M2 14h4M2 18h4"/><rect width="16" height="20" x="4" y="2" rx="2"/><path d="M15 2v20M15 7h5M15 12h5M15 17h5"/></symbol>
    <symbol id="i-pin" viewBox="0 0 24 24"><path d="M20 10c0 4.993-5.539 10.193-7.399 11.799a1 1 0 0 1-1.202 0C9.539 20.193 4 14.993 4 10a8 8 0 0 1 16 0"/><circle cx="12" cy="10" r="3"/></symbol>
    <symbol id="i-lightbulb" viewBox="0 0 24 24"><path d="M15 14c.2-1 .7-1.7 1.5-2.5 1-.9 1.5-2.2 1.5-3.5A6 6 0 0 0 6 8c0 1 .2 2.2 1.5 3.5.7.7 1.3 1.5 1.5 2.5M9 18h6M10 22h4"/></symbol>
    <symbol id="i-lock" viewBox="0 0 24 24"><circle cx="12" cy="16" r="1"/><rect x="3" y="10" width="18" height="12" rx="2"/><path d="M7 10V7a5 5 0 0 1 10 0v3"/></symbol>
    <symbol id="i-file-search" viewBox="0 0 24 24"><path d="M14 2v4a2 2 0 0 0 2 2h4M4.268 21a2 2 0 0 0 1.727 1H18a2 2 0 0 0 2-2V7l-5-5H6a2 2 0 0 0-2 2v3m5 11-1.5-1.5"/><circle cx="5" cy="14" r="3"/></symbol>
    <symbol id="i-camera" viewBox="0 0 24 24"><path d="M14.5 4h-5L7 7H4a2 2 0 0 0-2 2v9a2 2 0 0 0 2 2h16a2 2 0 0 0 2-2V9a2 2 0 0 0-2-2h-3l-2.5-3z"/><circle cx="12" cy="13" r="3"/></symbol>
    <symbol id="i-help" viewBox="0 0 24 24"><circle cx="12" cy="12" r="10"/><path d="M9.09 9a3 3 0 0 1 5.83 1c0 2-3 3-3 3M12 17h.01"/></symbol>
    <symbol id="i-paperclip" viewBox="0 0 24 24"><path d="M13.234 20.252 21 12.3M16 6l-8.414 8.586a2 2 0 0 0 0 2.828 2 2 0 0 0 2.828 0l8.414-8.586a4 4 0 0 0 0-5.656 4 4 0 0 0-5.656 0l-8.415 8.585a6 6 0 1 0 8.486 8.486"/></symbol>
    <symbol id="i-shield-question" viewBox="0 0 24 24"><path d="M20 13c0 5-3.5 7.5-7.66 8.95a1 1 0 0 1-.67-.01C7.5 20.5 4 18 4 13V6a1 1 0 0 1 1-1c2 0 4.5-1.2 6.24-2.72a1.17 1.17 0 0 1 1.52 0C14.51 3.81 17 5 19 5a1 1 0 0 1 1 1zM9.1 9a3 3 0 0 1 5.82 1c0 2-3 3-3 3M12 17h.01"/></symbol>
    <symbol id="i-book-check" viewBox="0 0 24 24"><path d="M12 21V7m4 5 2 2 4-4M22 6V4a1 1 0 0 0-1-1h-5a4 4 0 0 0-4 4 4 4 0 0 0-4-4H3a1 1 0 0 0-1 1v13a1 1 0 0 0 1 1h6a3 3 0 0 1 3 3 3 3 0 0 1 3-3h6a1 1 0 0 0 1-1v-1.3"/></symbol>
    <symbol id="i-route" viewBox="0 0 24 24"><circle cx="6" cy="19" r="3"/><path d="M9 19h8.5a3.5 3.5 0 0 0 0-7h-11a3.5 3.5 0 0 1 0-7H15"/><circle cx="18" cy="5" r="3"/></symbol>
    <symbol id="i-clock" viewBox="0 0 24 24"><circle cx="12" cy="12" r="10"/><path d="M12 6v6h4.5"/></symbol>
    <symbol id="i-siren" viewBox="0 0 24 24"><path d="M7 18v-6a5 5 0 1 1 10 0v6M5 21a1 1 0 0 0 1 1h12a1 1 0 0 0 1-1v-1a2 2 0 0 0-2-2H7a2 2 0 0 0-2 2zM21 12h1M18.5 4.5 18 5M2 12h1M12 2v1m-7.071 1.929.707.707M12 12v6"/></symbol>

    <pattern id="doodles" width="420" height="280" patternUnits="userSpaceOnUse" patternTransform="rotate(45)">
      <g fill="none" stroke="#fff" stroke-width="1.55" stroke-linecap="round" stroke-linejoin="round" opacity=".3">
        <use href="#i-search" x="18" y="18" width="34" height="34" transform="rotate(-10 35 35)"/>
        <use href="#i-key" x="92" y="23" width="27" height="27" transform="rotate(13 105 36)"/>
        <use href="#i-fingerprint" x="159" y="14" width="36" height="36" transform="rotate(-7 177 32)"/>
        <use href="#i-footprints" x="242" y="18" width="34" height="34" transform="rotate(10 259 35)"/>
        <use href="#i-scan-eye" x="333" y="21" width="31" height="31" transform="rotate(-8 348 36)"/>
        <use href="#i-clock" x="390" y="58" width="22" height="22"/>

        <use href="#i-flashlight" x="43" y="82" width="32" height="32" transform="rotate(78 59 98)"/>
        <use href="#i-door" x="121" y="76" width="37" height="37" transform="rotate(-5 139 94)"/>
        <use href="#i-messages" x="203" y="83" width="38" height="38" transform="rotate(6 222 102)"/>
        <use href="#i-file-search" x="300" y="79" width="34" height="34" transform="rotate(-10 317 96)"/>
        <use href="#i-siren" x="375" y="106" width="27" height="27" transform="rotate(8 388 119)"/>

        <use href="#i-notebook" x="17" y="151" width="35" height="35" transform="rotate(-8 34 168)"/>
        <use href="#i-pin" x="88" y="148" width="30" height="30" transform="rotate(7 103 163)"/>
        <use href="#i-lightbulb" x="155" y="149" width="31" height="31" transform="rotate(-9 170 164)"/>
        <use href="#i-lock" x="227" y="146" width="34" height="34" transform="rotate(5 244 163)"/>
        <use href="#i-camera" x="313" y="150" width="35" height="35" transform="rotate(-5 330 167)"/>
        <use href="#i-help" x="382" y="164" width="24" height="24"/>

        <use href="#i-paperclip" x="49" y="218" width="31" height="31" transform="rotate(-11 64 233)"/>
        <use href="#i-shield-question" x="126" y="214" width="34" height="34" transform="rotate(8 143 231)"/>
        <use href="#i-book-check" x="210" y="216" width="35" height="35" transform="rotate(-6 227 233)"/>
        <use href="#i-route" x="302" y="217" width="36" height="36" transform="rotate(9 320 235)"/>
        <use href="#i-search" x="379" y="232" width="25" height="25" transform="rotate(16 391 244)"/>
      </g>
      <g fill="#fff" opacity=".16">
        <circle cx="76" cy="62" r="1.5"/><circle cx="285" cy="59" r="1.3"/><circle cx="366" cy="142" r="1.6"/><circle cx="183" cy="204" r="1.4"/><circle cx="91" cy="260" r="1.2"/><circle cx="278" cy="268" r="1.5"/>
      </g>
    </pattern>

    <mask id="doodle-mask" maskUnits="userSpaceOnUse" x="0" y="0" width="1200" height="800" style="mask-type:alpha">
      <rect width="1200" height="800" fill="url(#doodles)"/>
    </mask>
  </defs>
  <rect width="1200" height="800" fill="url(#doodle-tone)" mask="url(#doodle-mask)"/>
</svg>
